# xmcd CD database file
#
# Track frame offsets:
#	150
#	149733
#	290985
#
# Disc length: 4432 seconds
#
# Revision: 1
# Processed by: cddbd v1.5.2PL0 Copyright (c) Steve Scherf et al.
# Submitted via: CDex 1.70beta2
#
DISCID=36114e03
DTITLE=Thomas Borgmann - Live in Poland
DYEAR=1998
DGENRE=Jazz
TTITLE0=Bird Bath
TTITLE1=Nasty and Sweet
TTITLE2=One by One
EXTD=YEAR: 1998
EXTT0=
EXTT1=
EXTT2=
PLAYORDER=
